<svg xmlns="http://www.w3.org/2000/svg" width="65" height="65" viewBox="0 0 65 65" fill="none">
  <path d="M53.8283 23.4178V18.2812C53.8283 15.857 52.8652 13.5321 51.1511 11.8179C49.4369 10.1037 47.1119 9.14063 44.6877 9.14062H20.3127C17.8884 9.14063 15.5635 10.1037 13.8493 11.8179C12.1351 13.5321 11.172 15.857 11.172 18.2812V23.4178C8.93851 23.6687 6.87572 24.7337 5.37778 26.4093C3.87984 28.0849 3.05176 30.2537 3.05176 32.5013C3.05176 34.7488 3.87984 36.9176 5.37778 38.5932C6.87572 40.2689 8.93851 41.3339 11.172 41.5848V50.7812C11.172 51.5893 11.493 52.3643 12.0644 52.9357C12.6358 53.5071 13.4108 53.8281 14.2189 53.8281H50.7814C51.5895 53.8281 52.3645 53.5071 52.9359 52.9357C53.5073 52.3643 53.8283 51.5893 53.8283 50.7812V41.5848C56.0618 41.3339 58.1246 40.2689 59.6225 38.5932C61.1205 36.9176 61.9485 34.7488 61.9485 32.5013C61.9485 30.2537 61.1205 28.0849 59.6225 26.4093C58.1246 24.7337 56.0618 23.6687 53.8283 23.4178ZM20.3127 11.1719H44.6877C46.5732 11.1719 48.3815 11.9209 49.7147 13.2542C51.048 14.5874 51.797 16.3957 51.797 18.2812V23.4178C49.5629 23.6676 47.4991 24.7319 46.0002 26.4074C44.5013 28.0828 43.6725 30.2519 43.672 32.5V33.5156H21.3283V32.5C21.3278 30.2519 20.499 28.0828 19.0001 26.4074C17.5012 24.7319 15.4374 23.6676 13.2033 23.4178V18.2812C13.2033 16.3957 13.9523 14.5874 15.2856 13.2542C16.6188 11.9209 18.4271 11.1719 20.3127 11.1719ZM52.8888 39.6094H52.8127C52.5433 39.6094 52.285 39.7164 52.0945 39.9068C51.904 40.0973 51.797 40.3556 51.797 40.625V50.7812C51.797 51.0506 51.69 51.3089 51.4996 51.4994C51.3091 51.6899 51.0508 51.7969 50.7814 51.7969H14.2189C13.9495 51.7969 13.6912 51.6899 13.5007 51.4994C13.3103 51.3089 13.2033 51.0506 13.2033 50.7812V40.625C13.2033 40.3556 13.0963 40.0973 12.9058 39.9068C12.7153 39.7164 12.457 39.6094 12.1877 39.6094H12.1115C10.7087 39.5943 9.34176 39.1646 8.18269 38.3744C7.02363 37.5841 6.12427 36.4686 5.59784 35.1683C5.0714 33.868 4.94144 32.441 5.2243 31.0669C5.50715 29.6929 6.19019 28.4333 7.18742 27.4466C8.18465 26.4599 9.4515 25.7904 10.8285 25.5222C12.2054 25.254 13.631 25.3991 14.9256 25.9394C16.2202 26.4797 17.3261 27.3909 18.104 28.5583C18.8818 29.7257 19.2969 31.0972 19.297 32.5V42.6562C19.297 42.9256 19.404 43.1839 19.5945 43.3744C19.785 43.5649 20.0433 43.6719 20.3127 43.6719C20.582 43.6719 20.8403 43.5649 21.0308 43.3744C21.2213 43.1839 21.3283 42.9256 21.3283 42.6562V35.5469H43.672V42.6562C43.672 42.9256 43.779 43.1839 43.9695 43.3744C44.16 43.5649 44.4183 43.6719 44.6877 43.6719C44.957 43.6719 45.2153 43.5649 45.4058 43.3744C45.5963 43.1839 45.7033 42.9256 45.7033 42.6562V32.5C45.7034 31.0972 46.1185 29.7257 46.8963 28.5583C47.6742 27.3909 48.7801 26.4797 50.0747 25.9394C51.3693 25.3991 52.7949 25.254 54.1718 25.5222C55.5488 25.7904 56.8157 26.4599 57.8129 27.4466C58.8101 28.4333 59.4931 29.6929 59.776 31.0669C60.0589 32.441 59.9289 33.868 59.4025 35.1683C58.876 36.4686 57.9767 37.5841 56.8176 38.3744C55.6585 39.1646 54.2916 39.5943 52.8888 39.6094Z" fill="#E2516D"/>
</svg>