<svg xmlns="http://www.w3.org/2000/svg" width="65" height="65" viewBox="0 0 65 65" fill="none">
  <path d="M23.3594 34.5312C22.9576 34.5312 22.5649 34.4121 22.2309 34.1889C21.8968 33.9657 21.6365 33.6485 21.4828 33.2773C21.329 32.9062 21.2888 32.4977 21.3672 32.1037C21.4455 31.7097 21.639 31.3478 21.9231 31.0637C22.2072 30.7796 22.5691 30.5862 22.9631 30.5078C23.3571 30.4294 23.7656 30.4696 24.1367 30.6234C24.5079 30.7771 24.8251 31.0375 25.0483 31.3715C25.2715 31.7055 25.3906 32.0983 25.3906 32.5C25.3906 33.0387 25.1766 33.5554 24.7957 33.9363C24.4148 34.3172 23.8981 34.5312 23.3594 34.5312ZM41.6406 30.4688C41.2389 30.4688 40.8462 30.5879 40.5121 30.8111C40.1781 31.0343 39.9177 31.3515 39.764 31.7227C39.6103 32.0938 39.57 32.5023 39.6484 32.8963C39.7268 33.2903 39.9202 33.6522 40.2043 33.9363C40.4884 34.2204 40.8503 34.4138 41.2444 34.4922C41.6384 34.5706 42.0468 34.5304 42.418 34.3766C42.7891 34.2229 43.1064 33.9625 43.3296 33.6285C43.5528 33.2945 43.6719 32.9017 43.6719 32.5C43.6719 31.9613 43.4579 31.4446 43.077 31.0637C42.696 30.6828 42.1794 30.4688 41.6406 30.4688ZM39.0686 41.798C37.0969 43.0238 34.8216 43.6733 32.5 43.6733C30.1784 43.6733 27.9031 43.0238 25.9315 41.798C25.7043 41.6701 25.4367 41.6343 25.1839 41.6982C24.9311 41.7622 24.7127 41.9208 24.5737 42.1414C24.4347 42.362 24.3858 42.6275 24.4372 42.8831C24.4886 43.1387 24.6364 43.3648 24.8498 43.5145C27.1455 44.944 29.7957 45.7017 32.5 45.7017C35.2043 45.7017 37.8546 44.944 40.1502 43.5145C40.2701 43.4469 40.375 43.3557 40.4585 43.2464C40.5421 43.1371 40.6025 43.012 40.6363 42.8786C40.67 42.7452 40.6763 42.6064 40.6547 42.4705C40.6332 42.3346 40.5842 42.2045 40.5109 42.0881C40.4375 41.9717 40.3413 41.8715 40.228 41.7934C40.1147 41.7153 39.9868 41.6611 39.8519 41.6339C39.717 41.6068 39.578 41.6074 39.4434 41.6356C39.3087 41.6638 39.1812 41.7191 39.0686 41.798ZM57.8906 32.5C57.8906 37.5218 56.4015 42.4308 53.6115 46.6063C50.8216 50.7817 46.8561 54.0361 42.2166 55.9579C37.5771 57.8796 32.4718 58.3825 27.5465 57.4027C22.6212 56.423 18.0971 54.0048 14.5461 50.4539C10.9952 46.9029 8.57696 42.3788 7.59726 37.4535C6.61756 32.5282 7.12038 27.423 9.04213 22.7834C10.9639 18.1439 14.2183 14.1784 18.3937 11.3885C22.5692 8.59851 27.4782 7.10938 32.5 7.10938C39.2318 7.11677 45.6857 9.79422 50.4457 14.5543C55.2058 19.3143 57.8832 25.7683 57.8906 32.5ZM55.8594 32.5C55.8536 26.3913 53.4579 20.5273 49.1847 16.162C44.9114 11.7967 39.0998 9.27658 32.9926 9.14062C29.5192 13.7287 29.4531 18.2381 29.4531 18.2812C29.4531 19.0893 29.7741 19.8643 30.3455 20.4357C30.9169 21.0071 31.6919 21.3281 32.5 21.3281C33.3081 21.3281 34.0831 21.0071 34.6545 20.4357C35.2259 19.8643 35.5469 19.0893 35.5469 18.2812C35.5469 18.0119 35.6539 17.7536 35.8444 17.5631C36.0348 17.3726 36.2932 17.2656 36.5625 17.2656C36.8319 17.2656 37.0902 17.3726 37.2807 17.5631C37.4711 17.7536 37.5781 18.0119 37.5781 18.2812C37.5781 19.6281 37.0431 20.9197 36.0908 21.872C35.1385 22.8244 33.8468 23.3594 32.5 23.3594C31.1532 23.3594 29.8616 22.8244 28.9092 21.872C27.9569 20.9197 27.4219 19.6281 27.4219 18.2812C27.4219 18.0832 27.4625 13.8861 30.4688 9.23203C25.9523 9.62626 21.6482 11.3262 18.0813 14.1246C14.5145 16.923 11.839 20.6988 10.3812 24.9917C8.92342 29.2845 8.74633 33.9088 9.87153 38.3005C10.9967 42.6923 13.3756 46.6617 16.718 49.7247C20.0604 52.7877 24.2219 54.8118 28.695 55.5503C33.168 56.2888 37.7593 55.7097 41.9089 53.8836C46.0584 52.0575 49.587 49.0634 52.0641 45.2664C54.5413 41.4694 55.86 37.0336 55.8594 32.5Z" fill="#E2516D"/>
</svg>