<svg xmlns="http://www.w3.org/2000/svg" width="65" height="65" viewBox="0 0 65 65" fill="none">
  <path d="M11.4512 49.7656C11.5162 50.0327 11.634 50.284 11.7977 50.5047C11.9614 50.7254 12.1677 50.9111 12.4044 51.0507C12.6411 51.1904 12.9034 51.2812 13.1758 51.3178C13.4482 51.3543 13.7251 51.3359 13.9902 51.2637C26.0939 47.9123 38.8807 47.9123 50.9844 51.2637C51.2495 51.3359 51.5265 51.3543 51.7989 51.3178C52.0712 51.2812 52.3335 51.1904 52.5702 51.0507C52.8069 50.9111 53.0132 50.7254 53.1769 50.5047C53.3406 50.284 53.4585 50.0327 53.5235 49.7656L59.9981 22.2676C60.087 21.8995 60.0712 21.514 59.9526 21.1544C59.834 20.7948 59.6172 20.4755 59.3267 20.2326C59.0363 19.9897 58.6837 19.8328 58.3088 19.7796C57.9339 19.7264 57.5516 19.7791 57.2051 19.9317L44.3574 25.6446C43.8919 25.8495 43.367 25.8747 42.884 25.7153C42.401 25.5558 41.9942 25.2231 41.7422 24.7813L34.2774 11.3242C34.1017 11.0068 33.8442 10.7421 33.5316 10.5578C33.2191 10.3736 32.8629 10.2764 32.5 10.2764C32.1372 10.2764 31.781 10.3736 31.4684 10.5578C31.1558 10.7421 30.8983 11.0068 30.7227 11.3242L23.2578 24.7813C23.0058 25.2231 22.599 25.5558 22.116 25.7153C21.633 25.8747 21.1081 25.8495 20.6426 25.6446L7.79494 19.9317C7.44839 19.7791 7.06609 19.7264 6.6912 19.7796C6.3163 19.8328 5.96373 19.9897 5.67328 20.2326C5.38283 20.4755 5.16606 20.7948 5.04744 21.1544C4.92882 21.514 4.91307 21.8995 5.00197 22.2676L11.4512 49.7656Z" stroke="#E2516D" stroke-width="1.5" stroke-linecap="round" stroke-linejoin="round"/>
</svg>