<svg xmlns="http://www.w3.org/2000/svg" width="100" height="17" viewBox="0 0 100 17" fill="none">
  <g clip-path="url(#clip0_1042_245)">
    <path d="M97.5771 7.8374C96.1087 7.8374 95.3745 8.74609 95.1175 9.65477L96.2922 10.147C96.4391 9.54119 96.8796 9.08685 97.5037 9.08685C98.1278 9.08685 98.5316 9.46546 98.5316 10.0713V10.2227C98.5316 11.0935 97.9075 11.4721 96.7328 11.5479V14.1225H98.0911V12.3808C99.119 12.1915 100.037 11.4343 100.037 10.1091C100 8.74609 99.0455 7.8374 97.5771 7.8374Z" fill="white"/>
    <path d="M97.3935 15.1826C96.7694 15.1826 96.5125 15.5234 96.5125 15.9777V16.2049C96.5125 16.6592 96.7694 17 97.3935 17C98.0176 17 98.2746 16.6592 98.2746 16.2049V15.9777C98.3113 15.5234 98.0543 15.1826 97.3935 15.1826Z" fill="white"/>
    <path d="M7.78267 5.52783C7.01175 5.52783 6.27753 5.79287 5.69016 6.20935C5.10279 5.755 4.36858 5.52783 3.59765 5.52783C1.61527 5.52783 0 7.19376 0 9.2383C0 10.412 0.51395 11.51 1.50514 12.5323C1.79883 12.8352 3.7812 14.8797 4.51542 15.637C4.69897 15.8263 4.8091 15.9399 4.84582 15.9777L5.69016 16.8485L6.53451 15.9777L9.28781 13.1381L9.83847 12.5701C10.8297 11.5479 11.3436 10.4499 11.3436 9.27616C11.3803 7.19376 9.76505 5.52783 7.78267 5.52783ZM8.99413 11.6615C8.62702 12.0401 5.837 14.9176 5.65345 15.1069C5.4699 14.9176 2.71659 12.0779 2.31278 11.6615C1.54185 10.8664 1.17474 10.0713 1.17474 9.2383C1.17474 7.87527 2.23935 6.77727 3.56094 6.77727C4.40529 6.77727 5.21292 7.26948 5.65345 8.06458V8.10244V8.06458C6.05727 7.26948 6.8649 6.77727 7.74596 6.77727C9.06755 6.77727 10.1322 7.87527 10.1322 9.2383C10.1689 10.0713 9.80176 10.8664 8.99413 11.6615Z" fill="white"/>
    <path d="M32.2687 11.1693L35.7195 7.61033L34.8752 6.7395L31.4244 10.2985L27.9736 6.7395L27.1292 7.61033L30.58 11.1693L27.1659 14.6905C27.1659 14.6905 27.1659 14.6905 27.1292 14.7284L27.9736 15.5992L31.4244 12.0402L34.8385 15.5613C34.8385 15.5613 34.8385 15.5613 34.8752 15.5992L35.7195 14.7284L32.2687 11.1693Z" fill="white"/>
    <path d="M68.9794 3.02895H65.8957V0H64.6843V3.02895H61.6006C61.6006 3.02895 61.6006 3.02895 61.5638 3.02895V4.2784H64.6475V11.2829V11.3207H65.859V4.2784H68.9427V3.02895H68.9794Z" fill="white"/>
  </g>
  <defs>
    <clipPath id="clip0_1042_245">
      <rect width="100" height="17" fill="white"/>
    </clipPath>
  </defs>
</svg>