<svg width="62" height="63" viewBox="0 0 62 63" fill="none" xmlns="http://www.w3.org/2000/svg">
<path d="M46.8775 11.7285C44.8918 11.7285 43.281 13.3395 43.281 15.3252C43.281 17.3108 44.8918 18.9218 46.8775 18.9218C48.8631 18.9218 50.4741 17.3108 50.4741 15.3252C50.4741 13.3395 48.8631 11.7285 46.8775 11.7285Z" fill="white"/>
<path d="M30.9026 16.3374C22.5779 16.3374 15.8116 23.1111 15.8116 31.4284C15.8116 39.7456 22.5854 46.5193 30.9026 46.5193C39.2199 46.5193 45.9935 39.7456 45.9935 31.4284C45.9935 23.1111 39.2199 16.3374 30.9026 16.3374ZM30.9026 41.1019C25.5676 41.1019 21.2365 36.7634 21.2365 31.4358C21.2365 26.1083 25.5751 21.7698 30.9026 21.7698C36.2302 21.7698 40.5686 26.1083 40.5686 31.4358C40.5686 36.7634 36.2302 41.1019 30.9026 41.1019Z" fill="white"/>
<path d="M42.8826 62.0749H18.4102C8.25718 62.0749 0 53.8176 0 43.6646V19.1923C0 9.03929 8.25718 0.781982 18.4102 0.781982H42.8826C53.0356 0.781982 61.293 9.03929 61.293 19.1923V43.6646C61.293 53.8176 53.0356 62.0749 42.8826 62.0749ZM18.4102 6.55161C11.4417 6.55161 5.76959 12.2238 5.76959 19.1923V43.6646C5.76959 50.6331 11.4417 56.3053 18.4102 56.3053H42.8826C49.8511 56.3053 55.5232 50.6331 55.5232 43.6646V19.1923C55.5232 12.2163 49.8511 6.55161 42.8826 6.55161H18.4102Z" fill="white"/>
</svg>
