<svg width="23" height="24" viewBox="0 0 23 24" fill="none" xmlns="http://www.w3.org/2000/svg">
<path d="M17.3877 4.3504C16.6512 4.3504 16.0537 4.94795 16.0537 5.68446C16.0537 6.42098 16.6512 7.01853 17.3877 7.01853C18.1242 7.01853 18.7218 6.42098 18.7218 5.68446C18.7218 4.94795 18.1242 4.3504 17.3877 4.3504Z" fill="white"/>
<path d="M11.4623 6.05975C8.37455 6.05975 5.86481 8.57224 5.86481 11.6573C5.86481 14.7423 8.37733 17.2548 11.4623 17.2548C14.5474 17.2548 17.0598 14.7423 17.0598 11.6573C17.0598 8.57224 14.5474 6.05975 11.4623 6.05975ZM11.4623 15.2453C9.48349 15.2453 7.87702 13.6361 7.87702 11.66C7.87702 9.68395 9.48627 8.07474 11.4623 8.07474C13.4384 8.07474 15.0476 9.68395 15.0476 11.66C15.0476 13.6361 13.4384 15.2453 11.4623 15.2453Z" fill="white"/>
<path d="M15.9059 23.0247H6.82868C3.06274 23.0247 0 19.9619 0 16.196V7.1188C0 3.35285 3.06274 0.29007 6.82868 0.29007H15.9059C19.6719 0.29007 22.7347 3.35285 22.7347 7.1188V16.196C22.7347 19.9619 19.6719 23.0247 15.9059 23.0247ZM6.82868 2.43013C4.24394 2.43013 2.14004 4.53405 2.14004 7.1188V16.196C2.14004 18.7807 4.24394 20.8847 6.82868 20.8847H15.9059C18.4907 20.8847 20.5945 18.7807 20.5945 16.196V7.1188C20.5945 4.53127 18.4907 2.43013 15.9059 2.43013H6.82868Z" fill="white"/>
</svg>
