<svg width="22" height="26" viewBox="0 0 22 26" fill="none" xmlns="http://www.w3.org/2000/svg">
<path d="M11.5728 5.72745L11.7547 5.68193C12.0908 5.59785 12.3946 5.3858 12.6403 5.19262C12.8949 4.99246 13.185 4.73091 13.4995 4.44736L13.5256 4.42379C14.1865 3.8279 15.0403 3.05988 16.2109 2.2244L11.5728 5.72745ZM11.5728 5.72745L11.3908 5.68195M11.5728 5.72745L11.3908 5.68195M11.3908 5.68195C11.0697 5.60167 10.8649 5.38891 10.7478 5.23822M11.3908 5.68195L10.7478 5.23822M10.7478 5.23822C10.6284 5.08469 10.5307 4.90426 10.4519 4.75077M10.7478 5.23822L10.4519 4.75077M10.4519 4.75077C10.4072 4.66367 10.3642 4.57672 10.3208 4.48899M10.4519 4.75077L10.3208 4.48899M10.3208 4.48899C10.1951 4.23502 10.066 3.9744 9.88404 3.6841M10.3208 4.48899L9.88404 3.6841M9.88404 3.6841C9.42529 2.95239 8.66301 2.1021 7.08349 1.58256M9.88404 3.6841L7.08349 1.58256M7.08349 1.58256C5.55304 1.0792 4.4237 1.05229 3.61057 1.2958M7.08349 1.58256L3.61057 1.2958M3.61057 1.2958C2.82125 1.53217 2.24721 2.04749 1.85119 2.82239M3.61057 1.2958L1.85119 2.82239M1.85119 2.82239C1.02373 4.4415 1.01155 7.139 1.74496 10.2553M1.85119 2.82239L1.74496 10.2553M1.74496 10.2553C2.46861 13.3301 3.87993 16.6472 5.68806 19.3934M1.74496 10.2553L5.68806 19.3934M5.68806 19.3934C7.42869 22.0372 9.4728 24.0555 11.5357 24.8983M5.68806 19.3934L11.5357 24.8983M11.5357 24.8983C13.3131 23.9612 15.1754 21.7055 16.8146 18.7651C18.5162 15.7127 19.8956 12.0711 20.6429 8.8203C21.0164 7.19528 21.2275 5.68767 21.2483 4.4134C21.2694 3.12081 21.0929 2.15013 20.7662 1.53726C20.6084 1.24136 20.4264 1.04873 20.2315 0.929693C20.0399 0.812723 19.7925 0.740006 19.4558 0.751108C18.7489 0.774419 17.6916 1.16783 16.211 2.22435L11.5357 24.8983Z" stroke="white" stroke-width="1.5"/>
</svg>
