<svg xmlns="http://www.w3.org/2000/svg" width="65" height="65" viewBox="0 0 65 65" fill="none">
  <path d="M13.1523 30.9512C12.8522 30.431 12.4526 29.9751 11.9763 29.6093C11.5 29.2436 10.9563 28.9753 10.3763 28.8197C9.79633 28.6641 9.19136 28.6242 8.59596 28.7024C8.00055 28.7806 7.42638 28.9753 6.90622 29.2754C6.38607 29.5755 5.93011 29.9751 5.56439 30.4514C5.19866 30.9277 4.93034 31.4714 4.77473 32.0514C4.61912 32.6314 4.57927 33.2364 4.65746 33.8318C4.73565 34.4272 4.93035 35.0013 5.23044 35.5215L14.625 51.7969C17.0741 55.9461 21.0621 58.9607 25.722 60.1853C30.3819 61.4098 35.3368 60.7453 39.5093 58.3361C43.6819 55.9269 46.7346 51.968 48.0039 47.3201C49.2731 42.6721 48.6561 37.7111 46.2871 33.5156L41.9707 26.0254C41.3274 25.0553 40.3382 24.3671 39.2049 24.1014C38.0717 23.8357 36.8797 24.0124 35.8722 24.5955C34.8648 25.1786 34.1178 26.1241 33.7836 27.2391C33.4495 28.3542 33.5534 29.5547 34.0742 30.5957" stroke="#E2516D" stroke-width="1.5" stroke-linecap="round" stroke-linejoin="round"/>
  <path d="M27.1679 36.9433L17.5195 20.2363C17.2194 19.7161 16.8198 19.2602 16.3435 18.8945C15.8672 18.5287 15.3235 18.2604 14.7435 18.1048C14.1635 17.9492 13.5585 17.9093 12.9631 17.9875C12.3677 18.0657 11.7936 18.2604 11.2734 18.5605C10.7533 18.8606 10.2973 19.2602 9.93157 19.7365C9.56585 20.2128 9.29752 20.7565 9.14191 21.3365C8.9863 21.9165 8.94646 22.5215 9.02465 23.1169C9.10284 23.7123 9.29754 24.2865 9.59763 24.8066L19.2461 41.5136" stroke="#E2516D" stroke-width="1.5" stroke-linecap="round" stroke-linejoin="round"/>
  <path d="M38.1367 37.6543L27.4726 19.1699C26.8666 18.1194 25.868 17.3527 24.6967 17.0384C23.5253 16.7241 22.2771 16.8881 21.2265 17.4941C20.176 18.1002 19.4093 19.0987 19.095 20.2701C18.7808 21.4415 18.9447 22.6897 19.5508 23.7402" stroke="#E2516D" stroke-width="1.5" stroke-linecap="round" stroke-linejoin="round"/>
  <path d="M25.1367 17.1894L22.5215 12.6445C21.9154 11.594 20.9169 10.8273 19.7455 10.513C18.5741 10.1987 17.3259 10.3627 16.2754 10.9687C15.2249 11.5748 14.4581 12.5733 14.1439 13.7447C13.8296 14.9161 13.9935 16.1643 14.5996 17.2148L15.209 18.2558" stroke="#E2516D" stroke-width="1.5" stroke-linecap="round" stroke-linejoin="round"/>
  <path d="M47.7344 48.623C50.8333 45.8169 52.8784 42.0347 53.5297 37.9051C54.181 33.7756 53.3992 29.5475 51.3144 25.9238L46.998 18.459C46.6979 17.9388 46.2983 17.4828 45.822 17.1171C45.3457 16.7514 44.802 16.4831 44.222 16.3275C43.642 16.1719 43.0371 16.132 42.4417 16.2102C41.8463 16.2884 41.2721 16.4831 40.7519 16.7832C40.2318 17.0833 39.7758 17.4829 39.4101 17.9592C39.0444 18.4355 38.776 18.9792 38.6204 19.5592C38.4648 20.1392 38.425 20.7441 38.5032 21.3395C38.5814 21.9349 38.7761 22.5091 39.0761 23.0293" stroke="#E2516D" stroke-width="1.5" stroke-linecap="round" stroke-linejoin="round"/>
  <path d="M39.6601 24.0449L32.4746 11.6035C31.8685 10.553 30.87 9.78627 29.6986 9.472C28.5272 9.15773 27.279 9.32166 26.2285 9.92772C25.178 10.5338 24.4113 11.5323 24.097 12.7037C23.7827 13.8751 23.9467 15.1233 24.5527 16.1738" stroke="#E2516D" stroke-width="1.5" stroke-linecap="round" stroke-linejoin="round"/>
  <path d="M44.8906 2.86914L43.8496 6.7793" stroke="#E2516D" stroke-width="1.5" stroke-linecap="round" stroke-linejoin="round"/>
  <path d="M52.584 6.44922L50.248 9.77539" stroke="#E2516D" stroke-width="1.5" stroke-linecap="round" stroke-linejoin="round"/>
  <path d="M58.5508 12.416L55.2246 14.752" stroke="#E2516D" stroke-width="1.5" stroke-linecap="round" stroke-linejoin="round"/>
</svg>