<svg xmlns="http://www.w3.org/2000/svg" width="65" height="65" viewBox="0 0 65 65" fill="none">
  <path d="M41.6406 19.8047C43.0429 19.8047 44.1797 18.6679 44.1797 17.2656C44.1797 15.8633 43.0429 14.7266 41.6406 14.7266C40.2383 14.7266 39.1016 15.8633 39.1016 17.2656C39.1016 18.6679 40.2383 19.8047 41.6406 19.8047Z" fill="#E2516D"/>
  <path d="M30.4688 34.5312L20.3125 46.7188" stroke="#E2516D" stroke-width="1.5" stroke-linecap="round" stroke-linejoin="round"/>
  <path d="M52.8125 24.3751V30.4689C52.8125 36.9335 50.2444 43.1334 45.6732 47.7046C41.102 52.2758 34.9022 54.8439 28.4375 54.8439H2.03125L26.4062 24.3751V19.297C26.4116 16.0896 27.5844 12.9938 29.7055 10.5878C31.8265 8.1819 34.7509 6.63034 37.9323 6.22294C41.1138 5.81554 44.3347 6.58017 46.9936 8.37401C49.6525 10.1679 51.5675 12.8682 52.3809 15.9708L58.9062 20.3126L52.8125 24.3751Z" stroke="#E2516D" stroke-width="1.5" stroke-linecap="round" stroke-linejoin="round"/>
</svg>