<svg xmlns="http://www.w3.org/2000/svg" width="65" height="65" viewBox="0 0 65 65" fill="none">
  <path d="M32.5 56.875C45.9619 56.875 56.875 45.9619 56.875 32.5C56.875 19.0381 45.9619 8.125 32.5 8.125C19.0381 8.125 8.125 19.0381 8.125 32.5C8.125 45.9619 19.0381 56.875 32.5 56.875Z" stroke="#E2516D" stroke-width="1.5" stroke-linecap="round" stroke-linejoin="round"/>
  <path d="M9.52148 24.375H55.4785" stroke="#E2516D" stroke-width="1.5" stroke-linecap="round" stroke-linejoin="round"/>
  <path d="M9.52148 40.625H55.4785" stroke="#E2516D" stroke-width="1.5" stroke-linecap="round" stroke-linejoin="round"/>
  <path d="M32.5 56.2148C38.1091 56.2148 42.6562 45.5973 42.6562 32.5C42.6562 19.4027 38.1091 8.78516 32.5 8.78516C26.8909 8.78516 22.3438 19.4027 22.3438 32.5C22.3438 45.5973 26.8909 56.2148 32.5 56.2148Z" stroke="#E2516D" stroke-width="1.5" stroke-linecap="round" stroke-linejoin="round"/>
</svg>