<svg xmlns="http://www.w3.org/2000/svg" width="69" height="62" viewBox="0 0 69 62" fill="none">
  <path d="M47.932 36.125C47.3184 37.0205 46.5764 37.8262 45.7072 38.5419L45.9374 37.3909C46.1413 36.9307 46.3462 36.4833 46.5511 36.0485C46.755 35.6143 47.0117 35.1925 47.3184 34.7825C47.6253 34.4252 47.9825 34.1436 48.3924 33.9384C48.8012 33.7348 49.2363 33.555 49.6967 33.4015H49.7734C49.1595 34.3221 48.5459 35.2309 47.932 36.125ZM68.1086 24.1183C67.9038 23.5563 67.5717 22.9424 67.1113 22.2771C65.5771 23.1472 64.0545 23.9913 62.5466 24.8087C61.0375 25.6277 59.6699 26.2664 58.4424 26.7269C58.5956 26.1646 58.7874 25.4105 59.0176 24.4636C59.2481 23.5177 59.3113 22.5587 59.2094 21.5864C59.1064 19.7969 58.391 18.3391 57.0614 17.2134C55.9874 16.3444 54.8366 15.9357 53.6091 15.9859C53.0973 16.0375 52.612 16.1393 52.1514 16.2928C51.6912 16.4463 51.2559 16.626 50.8474 16.83C50.0284 17.2399 49.2746 17.7122 48.5843 18.2491C47.8939 18.7863 47.1903 19.3365 46.4746 19.8987C44.9906 21.1263 43.6096 22.4055 42.3317 23.7346C41.0528 25.0652 39.8253 26.4464 38.6492 27.8777C38.4446 28.1342 38.2527 28.3895 38.0739 28.6448C37.8942 28.9013 37.7023 29.1569 37.4987 29.4122V29.2584C38.2658 27.5203 39.0449 25.8062 39.8386 24.1183C40.6308 22.4305 41.4616 20.7689 42.3317 19.1316C42.5872 18.6207 42.8423 18.134 43.099 17.6738C43.3543 17.2134 43.6863 16.7795 44.0963 16.3695C44.4032 16.0124 44.4797 15.6024 44.3265 15.142C44.1214 14.5797 43.6863 14.0428 43.022 13.531C42.6637 13.2757 42.3056 13.0706 41.9483 12.9171C41.3848 12.7636 40.9761 12.892 40.7208 13.3008C40.4138 13.7108 40.119 14.1326 39.8386 14.5667C39.5567 15.0018 39.2884 15.4236 39.0329 15.8326C37.9588 17.6234 36.9736 19.4516 36.0793 21.3181C35.1851 23.1856 34.3029 25.0652 33.4325 26.9571C32.1546 29.7189 31.0041 32.4807 29.9802 35.2427C29.6926 36.0197 29.4175 36.8047 29.1502 37.5941C28.5269 38.2297 27.9465 38.8356 27.4109 39.4104C26.3619 40.5361 25.2244 41.8404 23.9969 43.3233C23.9969 43.2728 24.0988 42.8761 24.3039 42.1341C24.5075 41.3933 24.751 40.511 25.0326 39.4874C25.3132 38.4647 25.6081 37.3906 25.9148 36.2649C26.2217 35.1406 26.477 34.1684 26.6821 33.3496C26.9374 32.4804 27.1807 31.6115 27.4109 30.7411C27.6411 29.8719 27.8063 29.0029 27.9094 28.1325C28.0631 26.8031 27.7296 25.7541 26.9123 24.987C26.2985 24.425 25.6583 24.0413 24.9942 23.8362C24.1755 23.479 23.3317 23.5295 22.4627 23.9897C21.4389 24.5531 20.4932 25.3202 19.6241 26.2913C18.9072 27.1101 18.2048 27.9156 17.5144 28.708C16.824 29.5017 16.1718 30.3323 15.5582 31.2015C14.1256 33.0941 12.7962 35.0253 11.5687 36.9939C10.3412 38.9635 9.13909 40.9965 7.96299 43.0931C7.85995 43.2465 7.70649 43.5284 7.50283 43.9369L7.42609 43.8604C7.47653 43.81 7.50283 43.733 7.50283 43.6302C8.01342 41.8918 8.52522 40.1657 9.03726 38.4517C9.54785 36.7384 10.0847 35.0374 10.6482 33.3496C11.4153 30.9462 12.221 28.6062 13.0648 26.3297C13.9086 24.0543 14.8413 21.7648 15.8649 19.4631C17.0407 16.8044 18.2301 14.1695 19.4322 11.5612C20.6334 8.95235 21.8993 6.34402 23.2298 3.73545C23.4851 3.32667 23.5365 2.91813 23.3833 2.5079C23.3317 2.35466 23.2035 2.12445 22.9996 1.81751C22.7431 1.40873 22.4362 1.05038 22.0791 0.743431C21.7207 0.436483 21.2854 0.206272 20.7748 0.0530397C20.1612 -0.100434 19.751 0.0793423 19.5473 0.589957C19.5473 0.641597 19.5341 0.666694 19.509 0.666694C19.4827 0.666694 19.4706 0.692997 19.4706 0.743431C18.754 2.12445 18.0513 3.50548 17.3609 4.88626C16.6706 6.26728 15.9669 7.64831 15.2512 9.02933C14.2276 11.1775 13.2183 13.3256 12.221 15.4738C11.2237 17.6219 10.2899 19.8215 9.42069 22.0717C7.47653 27.1868 5.72637 32.3019 4.16564 37.416C2.60612 42.5308 1.31516 47.773 0.291319 53.1434C0.241128 53.5534 0.20276 53.9489 0.176217 54.3326C0.151122 54.7163 0.112756 55.1118 0.0613585 55.5218C-0.0921087 56.2892 0.189488 56.8763 0.905185 57.2863C1.31516 57.5932 1.74902 57.7971 2.20942 57.8999C2.66958 58.002 3.15628 58.0536 3.66687 58.0536C4.53724 57.9503 5.2013 57.5667 5.6617 56.9028C5.76474 56.7998 5.8533 56.6724 5.93027 56.5191C6.00677 56.3657 6.09556 56.2375 6.1986 56.1357C6.60736 55.3683 7.04243 54.6009 7.50283 53.8341C7.96299 53.0667 8.42339 52.2993 8.88379 51.5324C10.008 49.5375 11.1204 47.5428 12.221 45.5482C13.3201 43.5532 14.4576 41.5851 15.6349 39.6406C16.6573 38.0559 17.7183 36.4951 18.8186 34.9609C19.9177 33.4261 21.0818 31.9686 22.309 30.5876L22.5395 30.3576V30.4341L22.0791 31.8154C20.6981 36.3682 19.4706 40.9712 18.3966 45.6249C18.0899 47.109 17.9362 48.5667 17.9362 49.9979C18.0383 50.9185 18.447 51.5841 19.1637 51.9926C19.419 52.1975 19.6875 52.3379 19.9694 52.4147C20.2498 52.4912 20.5446 52.5561 20.8516 52.6065C21.4138 52.7095 21.9256 52.6963 22.3858 52.5681C22.8462 52.441 23.28 52.1461 23.6902 51.6857L23.9969 51.379C24.2008 51.1234 24.4573 50.7783 24.764 50.3433C25.071 49.9091 25.3646 49.4873 25.6465 49.0773C25.8248 48.8174 25.9922 48.58 26.1505 48.3611C25.9495 49.1794 25.7442 49.9977 25.5309 50.8169C25.1735 52.1466 24.8403 53.4373 24.5333 54.6912C24.2267 55.9441 23.9714 57.2351 23.7662 58.5657C23.6644 58.9745 23.601 59.3451 23.5744 59.6781C23.5493 60.0102 23.511 60.3808 23.4596 60.7906C23.4091 61.0459 23.536 61.3012 23.843 61.5579C23.8946 61.5579 23.9714 61.6084 24.0732 61.7112C25.2502 62.1202 26.3747 62.0949 27.4487 61.6347C27.8071 61.481 28.0373 61.1994 28.1391 60.7906C28.3442 59.9718 28.5228 59.1663 28.6762 58.3738C28.8295 57.5804 29.0095 56.7747 29.2131 55.9574C29.3666 55.2404 29.508 54.55 29.6352 53.8859C29.7633 53.2206 29.9551 52.53 30.2107 51.8145C30.6708 50.28 31.221 48.7839 31.8602 47.3261C32.5001 45.8686 33.2289 44.3988 34.0464 42.915C35.6824 39.8976 37.5238 37.0072 39.57 34.2454C41.6148 31.4836 43.8661 28.8246 46.3211 26.2664C47.0882 25.4993 47.8674 24.7452 48.661 24.0032C49.4534 23.2623 50.284 22.5587 51.1544 21.8934C51.6649 21.5362 52.19 21.1779 52.7269 20.8193C53.264 20.4622 53.8393 20.1552 54.4529 19.8987C54.6568 19.7969 55.0152 19.6434 55.5272 19.4385C55.5272 19.5413 55.539 19.6183 55.5656 19.6685C55.5907 19.7201 55.5776 19.7969 55.5272 19.8987C55.4756 20.2057 55.4502 20.5124 55.4502 20.8193C55.4502 21.1263 55.3988 21.4079 55.2968 21.6632C54.785 24.0164 53.8895 26.2927 52.612 28.4913C52.612 28.6448 52.5351 28.7215 52.3816 28.7215C52.1251 28.8246 51.9084 28.9134 51.7296 28.9901C51.5498 29.0666 51.358 29.1569 51.1544 29.2584C50.1305 29.617 49.3248 29.8986 48.7377 30.1026C48.149 30.3074 47.8039 30.4093 47.7021 30.4093L46.3211 30.8697C44.8887 31.3815 43.7894 32.1235 43.022 33.0946C41.6413 34.9874 40.9761 37.0842 41.0277 39.3858C41.0277 39.9994 41.2579 40.5364 41.718 40.9968C42.1782 41.56 42.7021 41.9307 43.2908 42.1092C43.8782 42.289 44.5302 42.4292 45.2471 42.5313C45.8093 42.5829 46.3081 42.5192 46.7429 42.3394C47.177 42.1609 47.5988 41.9437 48.0088 41.6874C49.4916 40.8182 50.8474 39.6158 52.0749 38.0813C52.8924 37.0072 53.6477 35.9213 54.3381 34.8209C55.0284 33.7215 55.7058 32.584 56.371 31.4068C57.5469 31.0495 58.7493 30.6397 59.9768 30.1793C60.9992 29.7705 62.1367 29.2971 63.3905 28.7599C64.6433 28.2227 65.8575 27.6475 67.0346 27.0338C67.7503 26.6248 68.147 26.1646 68.2237 25.6528C68.3005 25.1419 68.2621 24.6301 68.1086 24.1183Z" fill="#E2516D"/>
</svg>