<svg xmlns="http://www.w3.org/2000/svg" width="194" height="176" viewBox="0 0 194 176" fill="none">
  <mask id="path-1-inside-1_1222_297" fill="white">
    <path d="M136.006 102.548C134.264 105.09 132.158 107.378 129.691 109.409L130.344 106.142C130.923 104.836 131.504 103.565 132.086 102.331C132.665 101.099 133.394 99.9014 134.264 98.7375C135.136 97.723 136.149 96.9236 137.313 96.3414C138.473 95.7632 139.709 95.2529 141.015 94.8172H141.233C139.491 97.4305 137.749 100.01 136.006 102.548ZM193.282 68.4648C192.7 66.8694 191.758 65.1267 190.451 63.2381C186.096 65.7083 181.773 68.1045 177.493 70.4246C173.209 72.7495 169.326 74.5628 165.842 75.8698C166.277 74.2737 166.822 72.133 167.475 69.445C168.129 66.7598 168.309 64.0376 168.02 61.2776C167.727 56.1976 165.696 52.0594 161.922 48.8638C158.873 46.3971 155.606 45.2367 152.122 45.3792C150.669 45.5258 149.291 45.8149 147.984 46.2505C146.678 46.6862 145.442 47.1965 144.282 47.7754C141.957 48.9392 139.817 50.2798 137.858 51.8039C135.898 53.3288 133.901 54.8906 131.869 56.4867C127.656 59.9713 123.736 63.6026 120.108 67.3756C116.478 71.1528 112.994 75.0738 109.655 79.1366C109.074 79.8648 108.529 80.5895 108.022 81.3142C107.512 82.0424 106.967 82.7678 106.389 83.4926V83.0562C108.566 78.1221 110.778 73.2564 113.031 68.4648C115.28 63.6738 117.638 58.9568 120.108 54.309C120.834 52.8588 121.558 51.4772 122.287 50.1708C123.011 48.8638 123.954 47.6322 125.118 46.4684C125.989 45.4545 126.206 44.2907 125.771 42.9837C125.189 41.3876 123.954 39.8635 122.068 38.4106C121.051 37.6858 120.034 37.1036 119.02 36.6679C117.421 36.2322 116.26 36.5966 115.535 37.7571C114.664 38.9209 113.827 40.1183 113.031 41.3506C112.231 42.5857 111.469 43.7831 110.744 44.9442C107.695 50.0277 104.898 55.2173 102.36 60.5159C99.8213 65.8172 97.317 71.1528 94.8463 76.5233C91.2186 84.3632 87.9526 92.2032 85.0462 100.044C84.2297 102.25 83.4489 104.478 82.6899 106.719C80.9206 108.523 79.2732 110.243 77.7525 111.875C74.7749 115.07 71.5459 118.773 68.0614 122.982C68.0614 122.839 68.3505 121.713 68.9327 119.606C69.5108 117.503 70.202 114.999 71.0014 112.093C71.798 109.19 72.635 106.141 73.5057 102.946C74.377 99.7541 75.1017 96.9942 75.6839 94.6699C76.4086 92.2025 77.0991 89.7358 77.7525 87.265C78.406 84.7975 78.8752 82.3308 79.1677 79.86C79.6041 76.0862 78.6574 73.1085 76.3374 70.9308C74.5948 69.3354 72.7775 68.2463 70.8924 67.664C68.5683 66.6502 66.1729 66.7934 63.7063 68.0997C60.7999 69.6992 58.1155 71.8768 55.6482 74.6333C53.6131 76.9576 51.6191 79.2441 49.6594 81.4937C47.6996 83.7467 45.8481 86.1045 44.1062 88.572C40.0395 93.9445 36.2659 99.4267 32.7814 105.015C29.2969 110.606 25.8843 116.377 22.5457 122.329C22.2532 122.764 21.8176 123.564 21.2394 124.724L21.0216 124.507C21.1648 124.364 21.2394 124.145 21.2394 123.854C22.6889 118.919 24.1417 114.019 25.5952 109.153C27.0447 104.29 28.5688 99.4609 30.1682 94.6699C32.3458 87.8472 34.6329 81.2046 37.0283 74.7422C39.4237 68.2833 42.0711 61.7839 44.9768 55.2502C48.3147 47.7027 51.691 40.2231 55.1036 32.8188C58.5134 25.4131 62.1069 18.0088 65.8839 10.6038C66.6086 9.44344 66.7545 8.28371 66.3195 7.11919C66.1729 6.68421 65.8092 6.03071 65.2304 5.15937C64.5023 3.99896 63.631 2.98172 62.6172 2.11038C61.6 1.23905 60.3643 0.585547 58.9148 0.150564C57.1729 -0.285103 56.0085 0.22523 55.4303 1.67472C55.4303 1.82131 55.3927 1.89255 55.3214 1.89255C55.2468 1.89255 55.2125 1.96722 55.2125 2.11038C53.1781 6.03071 51.1834 9.95103 49.2237 13.8707C47.264 17.791 45.2666 21.7113 43.2349 25.6317C40.3292 31.7296 37.4639 37.8276 34.6329 43.9256C31.8019 50.0236 29.151 56.2675 26.6837 62.6552C21.1648 77.1754 16.1966 91.6956 11.7661 106.213C7.3391 120.733 3.67444 135.614 0.768061 150.859C0.625584 152.023 0.516668 153.145 0.44132 154.234C0.370082 155.324 0.261171 156.446 0.11527 157.61C-0.320379 159.789 0.478992 161.455 2.51065 162.619C3.67443 163.49 4.90604 164.069 6.21299 164.361C7.51925 164.651 8.90086 164.797 10.3503 164.797C12.821 164.504 14.7061 163.415 16.013 161.531C16.3055 161.238 16.5569 160.876 16.7754 160.441C16.9926 160.006 17.2446 159.642 17.5371 159.353C18.6975 157.175 19.9325 154.996 21.2394 152.819C22.5457 150.641 23.8526 148.463 25.1596 146.286C28.3509 140.623 31.5087 134.96 34.6329 129.298C37.753 123.635 40.982 118.048 44.324 112.528C47.2263 108.03 50.2382 103.599 53.3617 99.2438C56.4818 94.8871 59.7861 90.7496 63.27 86.8293L63.9241 86.1765V86.3936L62.6172 90.3146C58.697 103.239 55.2125 116.305 52.1637 129.516C51.293 133.729 50.8567 137.867 50.8567 141.93C51.1465 144.543 52.3068 146.432 54.3412 147.592C55.0659 148.174 55.8283 148.572 56.6284 148.79C57.4243 149.007 58.2614 149.191 59.1327 149.335C60.7287 149.627 62.1815 149.589 63.4878 149.226C64.7947 148.865 66.0263 148.028 67.1908 146.721L68.0614 145.85C68.6402 145.125 69.3684 144.145 70.239 142.91C71.1103 141.678 71.9439 140.48 72.744 139.316C73.2502 138.579 73.7255 137.904 74.1749 137.283C73.6043 139.606 73.0214 141.929 72.4158 144.255C71.4014 148.029 70.4554 151.693 69.5841 155.252C68.7135 158.809 67.9888 162.474 67.4066 166.251C67.1175 167.411 66.9374 168.464 66.862 169.409C66.7908 170.351 66.6819 171.404 66.536 172.567C66.3928 173.292 66.7531 174.016 67.6244 174.745C67.771 174.745 67.9888 174.888 68.2779 175.18C71.6192 176.341 74.8112 176.269 77.8601 174.963C78.8773 174.527 79.5308 173.727 79.8198 172.567C80.4021 170.243 80.9089 167.956 81.3446 165.706C81.7796 163.454 82.2906 161.167 82.8687 158.847C83.3043 156.812 83.7057 154.852 84.0667 152.967C84.4304 151.078 84.975 149.117 85.7004 147.086C87.0067 142.73 88.5684 138.483 90.3829 134.345C92.1995 130.208 94.2682 126.035 96.5889 121.823C101.233 113.258 106.46 105.053 112.269 97.2127C118.073 89.3727 124.464 81.8246 131.433 74.5628C133.611 72.3851 135.823 70.2445 138.076 68.138C140.325 66.035 142.683 64.0376 145.153 62.149C146.603 61.1352 148.093 60.1179 149.617 59.1C151.142 58.0862 152.775 57.2148 154.517 56.4867C155.096 56.1976 156.113 55.7619 157.567 55.1803C157.567 55.4722 157.6 55.6907 157.676 55.8332C157.747 55.9798 157.71 56.1976 157.567 56.4867C157.42 57.358 157.348 58.2286 157.348 59.1C157.348 59.9713 157.202 60.7707 156.913 61.4955C155.46 68.1757 152.918 74.6374 149.291 80.8786C149.291 81.3142 149.073 81.5321 148.637 81.5321C147.909 81.8246 147.294 82.0767 146.786 82.2945C146.276 82.5117 145.732 82.7678 145.153 83.0562C142.247 84.0742 139.96 84.8736 138.293 85.4524C136.622 86.034 135.642 86.3231 135.353 86.3231L131.433 87.6301C127.367 89.083 124.246 91.1894 122.068 93.9459C118.149 99.3191 116.26 105.271 116.407 111.805C116.407 113.547 117.06 115.071 118.367 116.378C119.673 117.977 121.16 119.029 122.831 119.536C124.498 120.046 126.349 120.444 128.384 120.734C129.98 120.881 131.396 120.7 132.631 120.189C133.863 119.682 135.06 119.066 136.224 118.338C140.433 115.871 144.282 112.458 147.767 108.102C150.087 105.053 152.231 101.97 154.191 98.8465C156.151 95.7255 158.074 92.4964 159.962 89.1549C163.3 88.1404 166.713 86.9772 170.198 85.6702C173.1 84.5098 176.329 83.1658 179.888 81.641C183.445 80.1162 186.891 78.4831 190.233 76.7411C192.264 75.58 193.391 74.2737 193.608 72.8208C193.826 71.3706 193.717 69.9177 193.282 68.4648Z"/>
  </mask>
  <path d="M136.006 102.548C134.264 105.09 132.158 107.378 129.691 109.409L130.344 106.142C130.923 104.836 131.504 103.565 132.086 102.331C132.665 101.099 133.394 99.9014 134.264 98.7375C135.136 97.723 136.149 96.9236 137.313 96.3414C138.473 95.7632 139.709 95.2529 141.015 94.8172H141.233C139.491 97.4305 137.749 100.01 136.006 102.548ZM193.282 68.4648C192.7 66.8694 191.758 65.1267 190.451 63.2381C186.096 65.7083 181.773 68.1045 177.493 70.4246C173.209 72.7495 169.326 74.5628 165.842 75.8698C166.277 74.2737 166.822 72.133 167.475 69.445C168.129 66.7598 168.309 64.0376 168.02 61.2776C167.727 56.1976 165.696 52.0594 161.922 48.8638C158.873 46.3971 155.606 45.2367 152.122 45.3792C150.669 45.5258 149.291 45.8149 147.984 46.2505C146.678 46.6862 145.442 47.1965 144.282 47.7754C141.957 48.9392 139.817 50.2798 137.858 51.8039C135.898 53.3288 133.901 54.8906 131.869 56.4867C127.656 59.9713 123.736 63.6026 120.108 67.3756C116.478 71.1528 112.994 75.0738 109.655 79.1366C109.074 79.8648 108.529 80.5895 108.022 81.3142C107.512 82.0424 106.967 82.7678 106.389 83.4926V83.0562C108.566 78.1221 110.778 73.2564 113.031 68.4648C115.28 63.6738 117.638 58.9568 120.108 54.309C120.834 52.8588 121.558 51.4772 122.287 50.1708C123.011 48.8638 123.954 47.6322 125.118 46.4684C125.989 45.4545 126.206 44.2907 125.771 42.9837C125.189 41.3876 123.954 39.8635 122.068 38.4106C121.051 37.6858 120.034 37.1036 119.02 36.6679C117.421 36.2322 116.26 36.5966 115.535 37.7571C114.664 38.9209 113.827 40.1183 113.031 41.3506C112.231 42.5857 111.469 43.7831 110.744 44.9442C107.695 50.0277 104.898 55.2173 102.36 60.5159C99.8213 65.8172 97.317 71.1528 94.8463 76.5233C91.2186 84.3632 87.9526 92.2032 85.0462 100.044C84.2297 102.25 83.4489 104.478 82.6899 106.719C80.9206 108.523 79.2732 110.243 77.7525 111.875C74.7749 115.07 71.5459 118.773 68.0614 122.982C68.0614 122.839 68.3505 121.713 68.9327 119.606C69.5108 117.503 70.202 114.999 71.0014 112.093C71.798 109.19 72.635 106.141 73.5057 102.946C74.377 99.7541 75.1017 96.9942 75.6839 94.6699C76.4086 92.2025 77.0991 89.7358 77.7525 87.265C78.406 84.7975 78.8752 82.3308 79.1677 79.86C79.6041 76.0862 78.6574 73.1085 76.3374 70.9308C74.5948 69.3354 72.7775 68.2463 70.8924 67.664C68.5683 66.6502 66.1729 66.7934 63.7063 68.0997C60.7999 69.6992 58.1155 71.8768 55.6482 74.6333C53.6131 76.9576 51.6191 79.2441 49.6594 81.4937C47.6996 83.7467 45.8481 86.1045 44.1062 88.572C40.0395 93.9445 36.2659 99.4267 32.7814 105.015C29.2969 110.606 25.8843 116.377 22.5457 122.329C22.2532 122.764 21.8176 123.564 21.2394 124.724L21.0216 124.507C21.1648 124.364 21.2394 124.145 21.2394 123.854C22.6889 118.919 24.1417 114.019 25.5952 109.153C27.0447 104.29 28.5688 99.4609 30.1682 94.6699C32.3458 87.8472 34.6329 81.2046 37.0283 74.7422C39.4237 68.2833 42.0711 61.7839 44.9768 55.2502C48.3147 47.7027 51.691 40.2231 55.1036 32.8188C58.5134 25.4131 62.1069 18.0088 65.8839 10.6038C66.6086 9.44344 66.7545 8.28371 66.3195 7.11919C66.1729 6.68421 65.8092 6.03071 65.2304 5.15937C64.5023 3.99896 63.631 2.98172 62.6172 2.11038C61.6 1.23905 60.3643 0.585547 58.9148 0.150564C57.1729 -0.285103 56.0085 0.22523 55.4303 1.67472C55.4303 1.82131 55.3927 1.89255 55.3214 1.89255C55.2468 1.89255 55.2125 1.96722 55.2125 2.11038C53.1781 6.03071 51.1834 9.95103 49.2237 13.8707C47.264 17.791 45.2666 21.7113 43.2349 25.6317C40.3292 31.7296 37.4639 37.8276 34.6329 43.9256C31.8019 50.0236 29.151 56.2675 26.6837 62.6552C21.1648 77.1754 16.1966 91.6956 11.7661 106.213C7.3391 120.733 3.67444 135.614 0.768061 150.859C0.625584 152.023 0.516668 153.145 0.44132 154.234C0.370082 155.324 0.261171 156.446 0.11527 157.61C-0.320379 159.789 0.478992 161.455 2.51065 162.619C3.67443 163.49 4.90604 164.069 6.21299 164.361C7.51925 164.651 8.90086 164.797 10.3503 164.797C12.821 164.504 14.7061 163.415 16.013 161.531C16.3055 161.238 16.5569 160.876 16.7754 160.441C16.9926 160.006 17.2446 159.642 17.5371 159.353C18.6975 157.175 19.9325 154.996 21.2394 152.819C22.5457 150.641 23.8526 148.463 25.1596 146.286C28.3509 140.623 31.5087 134.96 34.6329 129.298C37.753 123.635 40.982 118.048 44.324 112.528C47.2263 108.03 50.2382 103.599 53.3617 99.2438C56.4818 94.8871 59.7861 90.7496 63.27 86.8293L63.9241 86.1765V86.3936L62.6172 90.3146C58.697 103.239 55.2125 116.305 52.1637 129.516C51.293 133.729 50.8567 137.867 50.8567 141.93C51.1465 144.543 52.3068 146.432 54.3412 147.592C55.0659 148.174 55.8283 148.572 56.6284 148.79C57.4243 149.007 58.2614 149.191 59.1327 149.335C60.7287 149.627 62.1815 149.589 63.4878 149.226C64.7947 148.865 66.0263 148.028 67.1908 146.721L68.0614 145.85C68.6402 145.125 69.3684 144.145 70.239 142.91C71.1103 141.678 71.9439 140.48 72.744 139.316C73.2502 138.579 73.7255 137.904 74.1749 137.283C73.6043 139.606 73.0214 141.929 72.4158 144.255C71.4014 148.029 70.4554 151.693 69.5841 155.252C68.7135 158.809 67.9888 162.474 67.4066 166.251C67.1175 167.411 66.9374 168.464 66.862 169.409C66.7908 170.351 66.6819 171.404 66.536 172.567C66.3928 173.292 66.7531 174.016 67.6244 174.745C67.771 174.745 67.9888 174.888 68.2779 175.18C71.6192 176.341 74.8112 176.269 77.8601 174.963C78.8773 174.527 79.5308 173.727 79.8198 172.567C80.4021 170.243 80.9089 167.956 81.3446 165.706C81.7796 163.454 82.2906 161.167 82.8687 158.847C83.3043 156.812 83.7057 154.852 84.0667 152.967C84.4304 151.078 84.975 149.117 85.7004 147.086C87.0067 142.73 88.5684 138.483 90.3829 134.345C92.1995 130.208 94.2682 126.035 96.5889 121.823C101.233 113.258 106.46 105.053 112.269 97.2127C118.073 89.3727 124.464 81.8246 131.433 74.5628C133.611 72.3851 135.823 70.2445 138.076 68.138C140.325 66.035 142.683 64.0376 145.153 62.149C146.603 61.1352 148.093 60.1179 149.617 59.1C151.142 58.0862 152.775 57.2148 154.517 56.4867C155.096 56.1976 156.113 55.7619 157.567 55.1803C157.567 55.4722 157.6 55.6907 157.676 55.8332C157.747 55.9798 157.71 56.1976 157.567 56.4867C157.42 57.358 157.348 58.2286 157.348 59.1C157.348 59.9713 157.202 60.7707 156.913 61.4955C155.46 68.1757 152.918 74.6374 149.291 80.8786C149.291 81.3142 149.073 81.5321 148.637 81.5321C147.909 81.8246 147.294 82.0767 146.786 82.2945C146.276 82.5117 145.732 82.7678 145.153 83.0562C142.247 84.0742 139.96 84.8736 138.293 85.4524C136.622 86.034 135.642 86.3231 135.353 86.3231L131.433 87.6301C127.367 89.083 124.246 91.1894 122.068 93.9459C118.149 99.3191 116.26 105.271 116.407 111.805C116.407 113.547 117.06 115.071 118.367 116.378C119.673 117.977 121.16 119.029 122.831 119.536C124.498 120.046 126.349 120.444 128.384 120.734C129.98 120.881 131.396 120.7 132.631 120.189C133.863 119.682 135.06 119.066 136.224 118.338C140.433 115.871 144.282 112.458 147.767 108.102C150.087 105.053 152.231 101.97 154.191 98.8465C156.151 95.7255 158.074 92.4964 159.962 89.1549C163.3 88.1404 166.713 86.9772 170.198 85.6702C173.1 84.5098 176.329 83.1658 179.888 81.641C183.445 80.1162 186.891 78.4831 190.233 76.7411C192.264 75.58 193.391 74.2737 193.608 72.8208C193.826 71.3706 193.717 69.9177 193.282 68.4648Z" stroke="#E2516D" stroke-width="2" mask="url(#path-1-inside-1_1222_297)"/>
</svg>