<svg xmlns="http://www.w3.org/2000/svg" width="65" height="65" viewBox="0 0 65 65" fill="none">
  <path d="M32.5 54.8438C32.5 54.8438 7.10938 40.625 7.10938 23.3594C7.10938 20.3072 8.16688 17.3492 10.102 14.9888C12.0371 12.6283 14.7302 11.0113 17.7232 10.4127C20.7161 9.81407 23.824 10.2709 26.5181 11.7055C29.2122 13.1401 31.3261 15.4638 32.5 18.2813V18.2813C33.6739 15.4638 35.7878 13.1401 38.4819 11.7055C41.176 10.2709 44.2839 9.81407 47.2768 10.4127C50.2698 11.0113 52.9629 12.6283 54.898 14.9888C56.8331 17.3492 57.8906 20.3072 57.8906 23.3594C57.8906 40.625 32.5 54.8438 32.5 54.8438Z" stroke="#E2516D" stroke-width="1.5" stroke-linecap="round" stroke-linejoin="round"/>
</svg>