<svg xmlns="http://www.w3.org/2000/svg" width="10" height="6" viewBox="0 0 10 6" fill="none">
  <path d="M9.8667 0.853694L5.32157 5.85337C5.27936 5.89985 5.22923 5.93673 5.17405 5.96189C5.11887 5.98705 5.05973 6 5 6C4.94027 6 4.88113 5.98705 4.82595 5.96189C4.77077 5.93673 4.72064 5.89985 4.67843 5.85337L0.133303 0.853694C0.069666 0.783771 0.0263202 0.69465 0.00875313 0.597614C-0.00881397 0.500578 0.000187484 0.39999 0.034618 0.308585C0.0690484 0.217179 0.12736 0.139066 0.20217 0.0841345C0.27698 0.0292027 0.364925 -7.77087e-05 0.454871 1.5489e-07H9.54513C9.63507 -7.77087e-05 9.72302 0.0292027 9.79783 0.0841345C9.87264 0.139066 9.93095 0.217179 9.96538 0.308585C9.99981 0.39999 10.0088 0.500578 9.99125 0.597614C9.97368 0.69465 9.93033 0.783771 9.8667 0.853694Z" fill="white"/>
</svg>