<svg width="59" height="23" viewBox="0 0 59 23" fill="none" xmlns="http://www.w3.org/2000/svg">
<path d="M0.333077 10.373V0H2.51826V8.56485H6.94919V10.373H0.333077Z" fill="white"/>
<path d="M10.5815 0V10.373H8.39631V0H10.5815Z" fill="white"/>
<path d="M14.2466 0L16.7447 7.88108H16.8406L19.3437 0H21.7661L18.2031 10.373H15.3871L11.8192 0H14.2466Z" fill="white"/>
<path d="M23.01 10.373V0H29.9744V1.80819H25.1952V4.27989H29.6161V6.08809H25.1952V8.56485H29.9946V10.373H23.01Z" fill="white"/>
<path d="M5.93987 15.4633C5.8995 15.0548 5.72623 14.7374 5.42007 14.5111C5.11391 14.2849 4.6984 14.1718 4.17355 14.1718C3.81692 14.1718 3.51581 14.2224 3.27021 14.3237C3.02461 14.4216 2.8362 14.5584 2.70499 14.734C2.57714 14.9096 2.51322 15.1088 2.51322 15.3316C2.50649 15.5174 2.54518 15.6794 2.62929 15.8179C2.71676 15.9563 2.8362 16.0762 2.9876 16.1775C3.139 16.2754 3.31395 16.3615 3.51245 16.4358C3.71095 16.5067 3.9229 16.5675 4.14832 16.6181L5.0769 16.841C5.52773 16.9423 5.94155 17.0774 6.31836 17.2462C6.69518 17.415 7.02153 17.6227 7.29741 17.8692C7.57329 18.1157 7.78693 18.4061 7.93833 18.7404C8.09309 19.0747 8.17216 19.4579 8.17552 19.8901C8.17216 20.5249 8.01066 21.0753 7.69104 21.5413C7.37479 22.0039 6.91723 22.3635 6.31836 22.6201C5.72286 22.8734 5.00456 23 4.16346 23C3.32909 23 2.60237 22.8717 1.98332 22.6151C1.36763 22.3584 0.886522 21.9786 0.539988 21.4754C0.196818 20.969 0.0168221 20.3426 0 19.5963H2.11453C2.13808 19.9441 2.23733 20.2345 2.41228 20.4675C2.5906 20.6971 2.82779 20.871 3.12386 20.9892C3.42329 21.104 3.76141 21.1614 4.13823 21.1614C4.50831 21.1614 4.82961 21.1074 5.10213 20.9993C5.37801 20.8913 5.59165 20.741 5.74305 20.5486C5.89445 20.3561 5.97015 20.1349 5.97015 19.885C5.97015 19.6521 5.90118 19.4562 5.76324 19.2975C5.62866 19.1388 5.43016 19.0037 5.16774 18.8923C4.90868 18.7809 4.59074 18.6796 4.21393 18.5884L3.08853 18.3048C2.21715 18.0921 1.52912 17.7595 1.02446 17.307C0.519802 16.8545 0.269153 16.245 0.272517 15.4785C0.269153 14.8505 0.435691 14.3018 0.772132 13.8324C1.11194 13.3631 1.57791 12.9967 2.17005 12.7333C2.76218 12.4699 3.43506 12.3383 4.18869 12.3383C4.95578 12.3383 5.6253 12.4699 6.19725 12.7333C6.77256 12.9967 7.22003 13.3631 7.53965 13.8324C7.85926 14.3018 8.02412 14.8454 8.03421 15.4633H5.93987Z" fill="white"/>
<path d="M9.25171 14.2883V12.4801H17.7401V14.2883H14.5759V22.8531H12.4159V14.2883H9.25171Z" fill="white"/>
<path d="M19.138 22.8531V12.4801H23.2157C23.9962 12.4801 24.6624 12.6202 25.2142 12.9005C25.7693 13.1773 26.1915 13.5707 26.4809 14.0806C26.7736 14.5871 26.9199 15.1831 26.9199 15.8685C26.9199 16.5574 26.7719 17.15 26.4758 17.6463C26.1797 18.1393 25.7508 18.5175 25.1889 18.7809C24.6304 19.0443 23.9542 19.176 23.1602 19.176H20.43V17.4133H22.8069C23.2241 17.4133 23.5706 17.3559 23.8465 17.2411C24.1224 17.1263 24.3276 16.9541 24.4622 16.7245C24.6002 16.4949 24.6691 16.2096 24.6691 15.8685C24.6691 15.5241 24.6002 15.2337 24.4622 14.9974C24.3276 14.761 24.1207 14.582 23.8415 14.4605C23.5656 14.3355 23.2174 14.2731 22.7968 14.2731H21.3232V22.8531H19.138ZM24.7196 18.1326L27.2883 22.8531H24.876L22.3628 18.1326H24.7196Z" fill="white"/>
<path d="M28.4642 22.8531V12.4801H35.4285V14.2883H30.6494V16.76H35.0702V18.5682H30.6494V21.0449H35.4487V22.8531H28.4642Z" fill="white"/>
<path d="M38.9473 22.8531H36.6056L40.1736 12.4801H42.9896L46.5525 22.8531H44.2109L41.622 14.8505H41.5412L38.9473 22.8531ZM38.8009 18.7758H44.332V20.4878H38.8009V18.7758Z" fill="white"/>
<path d="M47.7965 12.4801H50.4914L53.3377 19.4495H53.4588L56.3051 12.4801H59V22.8531H56.8804V16.1015H56.7946L54.1199 22.8025H52.6766L50.0019 16.0762H49.9161V22.8531H47.7965V12.4801Z" fill="white"/>
</svg>
