<svg xmlns="http://www.w3.org/2000/svg" width="65" height="65" viewBox="0 0 65 65" fill="none">
  <path d="M32.5 56.875C45.9619 56.875 56.875 45.9619 56.875 32.5C56.875 19.0381 45.9619 8.125 32.5 8.125C19.0381 8.125 8.125 19.0381 8.125 32.5C8.125 45.9619 19.0381 56.875 32.5 56.875Z" stroke="#E2516D" stroke-width="1.5" stroke-linecap="round" stroke-linejoin="round"/>
  <path d="M23.3594 29.9609C24.7617 29.9609 25.8984 28.8242 25.8984 27.4219C25.8984 26.0196 24.7617 24.8828 23.3594 24.8828C21.9571 24.8828 20.8203 26.0196 20.8203 27.4219C20.8203 28.8242 21.9571 29.9609 23.3594 29.9609Z" fill="#E2516D"/>
  <path d="M41.6406 29.9609C43.0429 29.9609 44.1797 28.8242 44.1797 27.4219C44.1797 26.0196 43.0429 24.8828 41.6406 24.8828C40.2383 24.8828 39.1016 26.0196 39.1016 27.4219C39.1016 28.8242 40.2383 29.9609 41.6406 29.9609Z" fill="#E2516D"/>
  <path d="M43.0625 38.5938C41.9887 40.4437 40.4479 41.9792 38.5942 43.0466C36.7405 44.1139 34.639 44.6757 32.5 44.6757C30.361 44.6757 28.2595 44.1139 26.4058 43.0466C24.5521 41.9792 23.0113 40.4437 21.9375 38.5938" stroke="#E2516D" stroke-width="1.5" stroke-linecap="round" stroke-linejoin="round"/>
</svg>