<svg xmlns="http://www.w3.org/2000/svg" width="65" height="65" viewBox="0 0 65 65" fill="none">
  <path d="M61.8795 30.093L58.3248 21.2062C58.0979 20.6424 57.7076 20.1594 57.204 19.8191C56.7004 19.4789 56.1066 19.297 55.4988 19.2969H45.7031V16.25C45.7031 15.9806 45.5961 15.7223 45.4057 15.5318C45.2152 15.3414 44.9569 15.2344 44.6875 15.2344H6.09375C5.28567 15.2344 4.51068 15.5554 3.93928 16.1268C3.36788 16.6982 3.04688 17.4732 3.04688 18.2812V46.7188C3.04688 47.5268 3.36788 48.3018 3.93928 48.8732C4.51068 49.4446 5.28567 49.7656 6.09375 49.7656H11.2455C11.4908 51.4566 12.3369 53.0027 13.629 54.1209C14.921 55.239 16.5725 55.8544 18.2812 55.8544C19.99 55.8544 21.6415 55.239 22.9335 54.1209C24.2256 53.0027 25.0717 51.4566 25.317 49.7656H39.683C39.9283 51.4566 40.7744 53.0027 42.0665 54.1209C43.3585 55.239 45.01 55.8544 46.7188 55.8544C48.4275 55.8544 50.079 55.239 51.371 54.1209C52.6631 53.0027 53.5092 51.4566 53.7545 49.7656H58.9062C59.7143 49.7656 60.4893 49.4446 61.0607 48.8732C61.6321 48.3018 61.9531 47.5268 61.9531 46.7188V30.4688C61.9526 30.34 61.9276 30.2124 61.8795 30.093ZM45.7031 21.3281H55.4988C55.7019 21.3277 55.9005 21.3882 56.0689 21.5018C56.2373 21.6154 56.3677 21.7769 56.4434 21.9654L59.4369 29.4531H45.7031V21.3281ZM5.07812 18.2812C5.07812 18.0119 5.18513 17.7536 5.37559 17.5631C5.56606 17.3726 5.82439 17.2656 6.09375 17.2656H43.6719V35.5469H5.07812V18.2812ZM18.2812 53.8281C17.2769 53.8281 16.2951 53.5303 15.46 52.9723C14.6249 52.4143 13.974 51.6212 13.5897 50.6933C13.2053 49.7654 13.1048 48.7444 13.3007 47.7593C13.4966 46.7742 13.9803 45.8694 14.6905 45.1592C15.4007 44.449 16.3055 43.9654 17.2906 43.7694C18.2756 43.5735 19.2967 43.6741 20.2246 44.0584C21.1525 44.4428 21.9456 45.0937 22.5036 45.9287C23.0615 46.7638 23.3594 47.7456 23.3594 48.75C23.3594 49.4169 23.228 50.0772 22.9728 50.6933C22.7176 51.3094 22.3436 51.8692 21.872 52.3408C21.4005 52.8123 20.8407 53.1864 20.2246 53.4416C19.6085 53.6968 18.9481 53.8281 18.2812 53.8281ZM39.683 47.7344H25.317C25.0717 46.0434 24.2256 44.4973 22.9335 43.3791C21.6415 42.261 19.99 41.6456 18.2812 41.6456C16.5725 41.6456 14.921 42.261 13.629 43.3791C12.3369 44.4973 11.4908 46.0434 11.2455 47.7344H6.09375C5.82439 47.7344 5.56606 47.6274 5.37559 47.4369C5.18513 47.2464 5.07812 46.9881 5.07812 46.7188V37.5781H43.6719V42.3287C42.6136 42.832 41.6958 43.5887 41 44.5317C40.3042 45.4746 39.8518 46.5747 39.683 47.7344ZM46.7188 53.8281C45.7144 53.8281 44.7326 53.5303 43.8975 52.9723C43.0624 52.4143 42.4115 51.6212 42.0272 50.6933C41.6428 49.7654 41.5423 48.7444 41.7382 47.7593C41.9341 46.7742 42.4178 45.8694 43.128 45.1592C43.8382 44.449 44.743 43.9654 45.7281 43.7694C46.7131 43.5735 47.7342 43.6741 48.6621 44.0584C49.59 44.4428 50.3831 45.0937 50.9411 45.9287C51.4991 46.7638 51.7969 47.7456 51.7969 48.75C51.7969 50.0968 51.2619 51.3884 50.3095 52.3408C49.3572 53.2931 48.0656 53.8281 46.7188 53.8281ZM59.9219 46.7188C59.9219 46.9881 59.8149 47.2464 59.6244 47.4369C59.4339 47.6274 59.1756 47.7344 58.9062 47.7344H53.7545C53.485 45.8685 52.4853 44.186 50.9754 43.0571C49.4656 41.9281 47.5691 41.4451 45.7031 41.7143V31.4844H59.9219V46.7188Z" fill="#E2516D"/>
</svg>