<svg xmlns="http://www.w3.org/2000/svg" width="65" height="65" viewBox="0 0 65 65" fill="none">
<path d="M59.9217 32.2461C59.475 27.1184 57.5998 22.2185 54.5091 18.1026C51.4183 13.9867 47.2358 10.8196 42.436 8.96068C37.6362 7.10175 32.4115 6.62544 27.3547 7.58582C22.298 8.54619 17.6116 10.9048 13.8276 14.3939C8.77113 19.0336 5.6473 25.4072 5.07798 32.2461C5.04278 32.667 5.09549 33.0907 5.23277 33.4902C5.37004 33.8897 5.58889 34.2563 5.8754 34.5666C6.16192 34.877 6.50985 35.1245 6.89709 35.2932C7.28434 35.462 7.70244 35.5483 8.12486 35.5469H31.4842V50.7812C31.4842 52.6668 32.2333 54.4751 33.5665 55.8083C34.8998 57.1416 36.7081 57.8906 38.5936 57.8906C40.4791 57.8906 42.2874 57.1416 43.6207 55.8083C44.954 54.4751 45.703 52.6668 45.703 50.7812C45.703 50.5119 45.596 50.2536 45.4055 50.0631C45.215 49.8726 44.9567 49.7656 44.6874 49.7656C44.418 49.7656 44.1597 49.8726 43.9692 50.0631C43.7787 50.2536 43.6717 50.5119 43.6717 50.7812C43.6717 52.128 43.1367 53.4197 42.1844 54.372C41.2321 55.3244 39.9404 55.8594 38.5936 55.8594C37.2468 55.8594 35.9552 55.3244 35.0028 54.372C34.0505 53.4197 33.5155 52.128 33.5155 50.7812V35.5469H56.8749C57.2973 35.5483 57.7154 35.462 58.1026 35.2932C58.4899 35.1245 58.8378 34.877 59.1243 34.5666C59.4108 34.2563 59.6297 33.8897 59.767 33.4902C59.9042 33.0907 59.9569 32.667 59.9217 32.2461ZM57.6366 33.1957C57.54 33.3013 57.4222 33.3852 57.291 33.4421C57.1597 33.499 57.0179 33.5275 56.8749 33.5258H8.12486C7.98296 33.5264 7.84251 33.4973 7.71254 33.4404C7.58258 33.3834 7.466 33.2998 7.37031 33.195C7.27462 33.0903 7.20195 32.9666 7.15699 32.832C7.11202 32.6974 7.09575 32.5549 7.10923 32.4137C7.52903 27.6687 9.26953 23.1362 12.1335 19.3297C14.9974 15.5233 18.8703 12.5952 23.3133 10.8772C27.7562 9.15925 32.5915 8.72011 37.2713 9.60958C41.951 10.499 46.288 12.6816 49.7909 15.9098C54.4651 20.1999 57.3546 26.0913 57.8854 32.4137C57.8968 32.5538 57.879 32.6947 57.8331 32.8276C57.7872 32.9604 57.7142 33.0823 57.6188 33.1855L57.6366 33.1957Z" fill="#E2516D"/>
</svg>