<svg width="581" height="527" viewBox="0 0 581 527" fill="none" xmlns="http://www.w3.org/2000/svg">
<path d="M407.246 307.062C402.03 314.674 395.723 321.523 388.335 327.606L390.292 317.822C392.025 313.911 393.766 310.108 395.508 306.412C397.241 302.722 399.423 299.137 402.03 295.652C404.639 292.614 407.674 290.22 411.159 288.477C414.634 286.746 418.332 285.217 422.245 283.913H422.897C417.68 291.738 412.464 299.463 407.246 307.062ZM578.747 205.005C577.006 200.228 574.183 195.01 570.27 189.355C557.229 196.752 544.287 203.926 531.47 210.874C518.643 217.835 507.017 223.265 496.584 227.178C497.886 222.399 499.517 215.989 501.473 207.941C503.432 199.9 503.97 191.749 503.104 183.485C502.228 168.273 496.147 155.882 484.845 146.314C475.716 138.928 465.935 135.453 455.501 135.88C451.151 136.319 447.026 137.184 443.111 138.489C439.199 139.793 435.499 141.321 432.027 143.055C425.065 146.54 418.658 150.554 412.79 155.117C406.922 159.683 400.941 164.36 394.857 169.139C382.243 179.573 370.505 190.446 359.643 201.744C348.772 213.054 338.339 224.795 328.342 236.96C326.602 239.141 324.972 241.311 323.452 243.481C321.924 245.661 320.293 247.833 318.562 250.003V248.697C325.083 233.922 331.705 219.353 338.451 205.005C345.185 190.66 352.247 176.535 359.643 162.618C361.815 158.276 363.983 154.139 366.165 150.227C368.335 146.314 371.158 142.626 374.642 139.141C377.251 136.105 377.901 132.62 376.599 128.707C374.856 123.928 371.158 119.364 365.511 115.013C362.465 112.843 359.421 111.1 356.384 109.795C351.595 108.491 348.12 109.582 345.95 113.057C343.341 116.542 340.835 120.127 338.451 123.817C336.056 127.515 333.775 131.101 331.603 134.577C322.474 149.799 314.099 165.338 306.498 181.204C298.897 197.078 291.398 213.054 284 229.135C273.138 252.61 263.358 276.086 254.656 299.563C252.211 306.168 249.872 312.84 247.6 319.549C242.302 324.952 237.369 330.103 232.816 334.988C223.9 344.557 214.231 355.643 203.798 368.248C203.798 367.819 204.663 364.447 206.406 358.14C208.138 351.843 210.207 344.344 212.601 335.643C214.986 326.95 217.492 317.82 220.099 308.252C222.708 298.695 224.878 290.431 226.622 283.472C228.792 276.084 230.859 268.698 232.816 261.299C234.773 253.911 236.178 246.525 237.053 239.126C238.36 227.826 235.525 218.91 228.578 212.389C223.361 207.612 217.919 204.351 212.275 202.608C205.315 199.572 198.143 200.001 190.757 203.912C182.054 208.702 174.016 215.222 166.628 223.476C160.535 230.435 154.564 237.282 148.696 244.018C142.828 250.764 137.284 257.824 132.068 265.213C119.891 281.3 108.592 297.715 98.1579 314.448C87.7242 331.19 77.5059 348.471 67.509 366.291C66.6332 367.595 65.3288 369.991 63.5977 373.464L62.9454 372.814C63.3741 372.385 63.5977 371.731 63.5977 370.857C67.9377 356.08 72.288 341.409 76.6403 326.839C80.9803 312.276 85.544 297.818 90.3332 283.472C96.8535 263.043 103.702 243.153 110.874 223.802C118.047 204.462 125.974 185.001 134.675 165.437C144.67 142.837 154.779 120.441 164.998 98.2699C175.208 76.095 185.968 53.9242 197.277 31.7513C199.447 28.2767 199.884 24.8041 198.582 21.3171C198.143 20.0147 197.054 18.0579 195.321 15.4488C193.14 11.9742 190.531 8.92822 187.496 6.31916C184.45 3.71011 180.75 1.75331 176.41 0.450838C171.194 -0.853691 167.707 0.67441 165.976 5.01463C165.976 5.45358 165.863 5.6669 165.65 5.6669C165.426 5.6669 165.324 5.89047 165.324 6.31916C159.232 18.0579 153.26 29.7966 147.391 41.5332C141.523 53.2719 135.543 65.0106 129.459 76.7493C120.759 95.0086 112.179 113.268 103.702 131.527C95.2249 149.786 87.2873 168.483 79.8994 187.61C63.3741 231.088 48.4978 274.566 35.2316 318.036C21.9756 361.512 11.0024 406.071 2.29982 451.719C1.8732 455.204 1.54707 458.566 1.32145 461.827C1.10814 465.088 0.782031 468.45 0.345156 471.935C-0.959315 478.458 1.43425 483.448 7.51768 486.933C11.0024 489.542 14.6903 491.275 18.6037 492.149C22.515 493.017 26.652 493.456 30.992 493.456C38.3902 492.578 44.0347 489.317 47.9481 483.674C48.8239 482.798 49.5767 481.715 50.2309 480.413C50.8811 479.108 51.6359 478.019 52.5117 477.153C55.9862 470.631 59.6842 464.108 63.5977 457.589C67.509 451.067 71.4224 444.544 75.3358 438.026C84.8917 421.069 94.3471 404.114 103.702 387.159C113.044 370.203 122.713 353.473 132.72 336.945C141.411 323.475 150.429 310.209 159.782 297.167C169.124 284.122 179.019 271.733 189.45 259.995L191.409 258.04V258.69L187.496 270.431C175.758 309.13 165.324 348.255 156.195 387.812C153.588 400.426 152.281 412.817 152.281 424.982C153.149 432.808 156.623 438.465 162.715 441.937C164.885 443.679 167.168 444.872 169.563 445.525C171.947 446.175 174.453 446.727 177.062 447.155C181.841 448.031 186.191 447.918 190.103 446.829C194.016 445.748 197.704 443.242 201.191 439.328L203.798 436.721C205.531 434.549 207.711 431.616 210.318 427.918C212.927 424.228 215.423 420.642 217.819 417.157C219.334 414.948 220.758 412.93 222.103 411.07C220.395 418.025 218.649 424.98 216.836 431.944C213.798 443.246 210.966 454.217 208.357 464.875C205.75 475.525 203.58 486.498 201.837 497.808C200.971 501.283 200.432 504.434 200.206 507.264C199.993 510.086 199.667 513.237 199.23 516.72C198.801 518.89 199.88 521.06 202.489 523.242C202.928 523.242 203.58 523.671 204.446 524.545C214.451 528.022 224.009 527.806 233.138 523.895C236.184 522.588 238.14 520.195 239.006 516.72C240.749 509.76 242.267 502.914 243.572 496.178C244.874 489.434 246.404 482.585 248.135 475.638C249.44 469.544 250.642 463.675 251.723 458.03C252.812 452.375 254.442 446.505 256.614 440.423C260.526 427.38 265.202 414.663 270.635 402.272C276.075 389.883 282.269 377.39 289.218 364.777C303.124 339.13 318.776 314.561 336.169 291.086C353.549 267.61 372.686 245.009 393.553 223.265C400.073 216.744 406.696 210.334 413.442 204.027C420.178 197.73 427.237 191.749 434.636 186.094C438.976 183.058 443.439 180.012 448.002 176.964C452.568 173.928 457.458 171.319 462.674 169.139C464.407 168.273 467.453 166.969 471.805 165.227C471.805 166.101 471.905 166.756 472.131 167.182C472.344 167.621 472.234 168.273 471.805 169.139C471.366 171.748 471.151 174.355 471.151 176.964C471.151 179.573 470.714 181.967 469.846 184.137C465.496 204.14 457.884 223.488 447.026 242.176C447.026 243.481 446.372 244.133 445.067 244.133C442.887 245.009 441.045 245.764 439.525 246.416C437.997 247.066 436.367 247.833 434.636 248.697C425.933 251.745 419.085 254.138 414.094 255.872C409.09 257.613 406.157 258.479 405.291 258.479L393.553 262.392C381.378 266.743 372.033 273.05 365.511 281.304C353.775 297.393 348.12 315.215 348.559 334.779C348.559 339.995 350.516 344.559 354.427 348.473C358.338 353.26 362.791 356.411 367.796 357.928C372.788 359.457 378.33 360.648 384.424 361.516C389.203 361.955 393.442 361.413 397.138 359.885C400.828 358.367 404.413 356.521 407.898 354.343C420.502 346.955 432.027 336.734 442.46 323.691C449.409 314.561 455.829 305.331 461.697 295.978C467.565 286.633 473.323 276.964 478.977 266.958C488.972 263.92 499.193 260.438 509.626 256.524C518.317 253.049 527.985 249.025 538.643 244.459C549.292 239.893 559.613 235.003 569.618 229.787C575.701 226.311 579.073 222.399 579.725 218.049C580.377 213.706 580.051 209.356 578.747 205.005Z" fill="#F7F7F7" fill-opacity="0.7"/>
</svg>
